<?xml version="1.0" standalone="no"?>
<!DOCTYPE svg PUBLIC "-//W3C//DTD SVG 20010904//EN"
 "http://www.w3.org/TR/2001/REC-SVG-20010904/DTD/svg10.dtd">
<svg version="1.0" xmlns="http://www.w3.org/2000/svg"
 width="800.000000pt" height="600.000000pt" viewBox="0 0 800.000000 600.000000"
 preserveAspectRatio="xMidYMid meet">

<g transform="translate(0.000000,600.000000) scale(0.100000,-0.100000)"
fill="#000000" stroke="none">
<path d="M5904 5981 c-59 -27 -114 -79 -138 -131 -19 -41 -21 -67 -24 -292
l-4 -247 -306 -3 -307 -3 -47 -27 c-57 -34 -115 -100 -128 -147 -6 -20 -10
-170 -10 -339 0 -334 2 -347 62 -410 42 -42 123 -72 198 -72 l60 0 1 -157 c0
-87 4 -178 8 -203 l7 -45 195 196 c155 157 201 197 228 203 18 3 115 6 214 6
212 0 244 7 308 70 72 69 79 105 79 387 0 228 0 233 20 233 40 0 76 -30 260
-214 102 -102 188 -186 192 -186 5 0 8 90 8 200 l0 200 55 0 c104 0 207 55
245 131 19 36 20 60 20 357 l0 318 -26 53 c-27 54 -79 100 -143 127 -27 11
-121 14 -510 14 -441 0 -479 -2 -517 -19z m990 -70 c21 -5 52 -22 68 -38 56
-52 58 -66 58 -376 0 -277 -1 -285 -23 -327 -34 -65 -88 -90 -192 -90 -56 0
-86 -4 -93 -13 -7 -8 -13 -71 -14 -152 l-3 -138 -150 151 -150 152 -211 0
c-220 0 -260 6 -303 44 -48 43 -51 65 -51 381 0 313 2 326 48 368 48 44 75 46
537 46 242 0 457 -4 479 -8z m-1144 -709 c0 -38 52 -123 94 -151 60 -41 105
-51 244 -51 l122 0 0 -251 c0 -238 -1 -253 -21 -286 -41 -66 -71 -73 -309 -73
-128 0 -220 -4 -233 -11 -12 -5 -86 -76 -164 -157 l-143 -147 1 144 c1 174 3
171 -114 171 -96 0 -139 18 -175 73 l-27 41 0 300 c0 286 1 303 21 336 11 19
35 45 54 57 32 23 38 23 341 23 291 0 309 -1 309 -18z"/>
<path d="M5982 5678 c-19 -19 -14 -45 10 -62 19 -14 78 -16 439 -16 393 0 418
1 440 19 21 16 22 22 11 45 l-12 26 -438 0 c-327 0 -441 -3 -450 -12z"/>
<path d="M6006 5438 c-13 -19 -14 -25 -2 -43 13 -19 24 -20 280 -23 173 -1
274 1 286 8 22 12 26 50 8 68 -9 9 -86 12 -284 12 -270 0 -273 0 -288 -22z"/>
<path d="M5172 4958 c-18 -18 -14 -56 7 -68 12 -6 118 -10 276 -10 158 0 264
4 276 10 21 12 25 50 7 68 -17 17 -549 17 -566 0z"/>
<path d="M5160 4711 c-13 -25 -13 -27 6 -45 14 -14 68 -16 448 -16 468 0 462
-1 454 52 l-3 23 -447 3 c-434 2 -447 2 -458 -17z"/>
<path d="M2974 5198 c-47 -13 -93 -67 -114 -136 -11 -35 -20 -78 -21 -96 0
-17 -3 -26 -5 -19 -7 17 -49 0 -99 -42 -40 -33 -105 -137 -105 -169 0 -14 -16
-16 -117 -16 -125 0 -147 -6 -141 -36 3 -17 15 -19 126 -22 l122 -3 0 -26 c0
-37 35 -106 73 -144 35 -35 100 -68 133 -69 21 0 22 -6 29 -132 8 -156 21
-251 38 -279 16 -26 64 -33 139 -21 89 15 256 25 241 15 -9 -7 -10 -18 -2 -46
l10 -37 329 0 c324 0 329 0 341 21 6 12 8 30 6 41 -5 19 -2 20 71 13 93 -7
209 8 262 35 74 38 70 8 70 555 0 309 -4 504 -11 528 -13 49 -43 75 -93 81
-66 9 -1252 12 -1282 4z m-147 -510 c-1 -40 -3 -10 -3 67 0 77 1 110 3 73 2
-37 2 -100 0 -140z m545 190 c24 -20 28 -44 12 -67 -17 -23 -53 -28 -72 -9
-17 17 -15 54 4 72 19 19 35 20 56 4z m698 -8 c11 -11 20 -25 20 -32 0 -20
-32 -48 -55 -48 -43 0 -60 47 -28 82 21 23 38 23 63 -2z m-1233 -382 c-2 -18
-4 -6 -4 27 0 33 2 48 4 33 2 -15 2 -42 0 -60z m681 -226 c3 -67 1 -72 -18
-72 -18 0 -20 6 -20 68 0 38 3 72 7 76 18 17 28 -7 31 -72z m137 -2 c0 -68 -2
-75 -20 -75 -18 0 -20 8 -23 64 -4 75 2 94 25 89 15 -3 18 -15 18 -78z m110 0
c0 -68 -2 -75 -20 -75 -18 0 -20 8 -23 64 -4 75 2 94 25 89 15 -3 18 -15 18
-78z m123 1 c-3 -58 -5 -66 -23 -66 -17 0 -20 8 -23 58 -3 61 9 90 34 80 11
-4 14 -21 12 -72z m-623 -1 c0 -58 -2 -65 -20 -65 -17 0 -20 8 -23 54 -4 65 2
84 25 79 15 -3 18 -14 18 -68z m125 0 c0 -63 -2 -70 -20 -70 -18 0 -20 7 -20
70 0 63 2 70 20 70 18 0 20 -7 20 -70z m610 0 c0 -63 -2 -70 -20 -70 -18 0
-20 7 -20 70 0 63 2 70 20 70 18 0 20 -7 20 -70z"/>
<path d="M4370 4690 l0 -270 26 10 c84 32 168 126 180 200 l6 35 107 -3 c88
-3 110 0 121 12 10 13 10 19 0 32 -11 12 -33 15 -122 12 l-108 -3 0 25 c-1 35
-32 100 -69 142 -30 34 -103 78 -129 78 -9 0 -12 -69 -12 -270z"/>
<path d="M2640 3861 c-119 -37 -210 -166 -210 -299 0 -57 29 -142 48 -142 5 0
15 21 22 48 16 64 34 82 85 82 33 0 50 -7 83 -36 l42 -36 0 55 c0 82 28 226
54 279 18 38 20 48 8 53 -19 7 -102 5 -132 -4z"/>
<path d="M4465 3826 c8 -26 17 -116 21 -201 l7 -154 45 39 c37 33 52 40 88 40
51 0 79 -28 89 -90 4 -22 11 -40 16 -40 6 0 19 21 31 47 40 90 10 227 -68 313
-50 55 -105 82 -181 88 l-62 5 14 -47z"/>
<path d="M2985 3717 c-3 -7 -4 -127 -3 -267 l3 -255 644 -3 c509 -2 646 0 653
10 9 15 11 489 2 512 -6 14 -72 16 -650 16 -511 0 -646 -3 -649 -13z m1235
-257 l0 -210 -590 0 -590 0 0 210 0 210 590 0 590 0 0 -210z"/>
<path d="M1449 3660 c-21 -20 -29 -38 -29 -63 0 -35 32 -87 53 -87 30 0 257
-123 257 -139 0 -11 -144 -148 -169 -161 -21 -11 -26 -10 -42 11 -19 26 -77
139 -108 211 -27 66 -73 89 -133 68 -83 -30 -103 -106 -58 -220 52 -132 149
-318 180 -343 36 -31 82 -35 134 -13 76 32 360 239 439 320 75 77 97 186 48
235 -27 27 -224 129 -324 168 -61 23 -113 36 -156 38 -59 3 -66 2 -92 -25z"/>
<path d="M5523 3650 c-105 -40 -305 -142 -334 -171 -10 -10 -21 -37 -24 -62
-8 -54 19 -118 75 -176 76 -78 361 -286 436 -317 18 -8 49 -14 68 -14 58 0 90
38 166 194 118 245 130 307 71 367 -62 62 -148 43 -183 -39 -30 -72 -88 -185
-107 -211 -16 -21 -21 -22 -42 -11 -26 13 -169 150 -169 161 0 10 144 93 222
128 36 16 71 39 77 50 18 33 13 78 -13 108 -21 24 -31 27 -84 29 -47 1 -81 -7
-159 -36z"/>
<path d="M2176 3167 l-28 -12 27 -15 c30 -16 64 -80 65 -120 0 -43 -21 -102
-45 -126 -28 -28 -78 -32 -132 -9 -20 8 -38 13 -41 10 -14 -13 34 -98 76 -136
69 -61 98 -73 173 -74 53 0 72 5 100 24 38 26 97 106 117 161 15 41 8 150 -14
191 -45 89 -205 145 -298 106z"/>
<path d="M4862 3161 c-55 -19 -105 -58 -127 -101 -19 -37 -29 -149 -15 -185
20 -53 83 -141 117 -165 71 -48 171 -35 255 33 54 44 82 82 93 129 l7 28 -42
-15 c-50 -18 -94 -19 -122 -4 -25 13 -57 84 -58 126 0 50 28 110 62 131 l30
19 -32 12 c-47 16 -107 13 -168 -8z"/>
<path d="M2814 2515 c-4 -8 -1 -22 6 -30 11 -13 112 -15 770 -15 417 0 765 3
774 6 21 8 21 40 0 48 -9 3 -360 6 -780 6 -673 0 -765 -2 -770 -15z"/>
<path d="M2984 2248 c10 -52 92 -172 161 -236 158 -148 398 -197 649 -133 203
53 371 205 400 364 l7 37 -612 0 -611 0 6 -32z"/>
<path d="M2947 1635 c-21 -8 -60 -30 -86 -50 -111 -80 -123 -266 -24 -356 116
-106 252 -135 368 -79 49 24 141 138 156 195 13 45 -4 146 -31 190 -28 45 -62
69 -138 94 -72 25 -187 27 -245 6z"/>
<path d="M4015 1629 c-108 -37 -149 -84 -166 -189 -13 -80 -3 -113 61 -199 77
-103 171 -140 288 -111 53 12 151 70 189 112 55 59 68 158 32 252 -35 96 -142
156 -273 156 -45 -1 -93 -8 -131 -21z"/>
<path d="M2853 540 c-34 -14 -525 -320 -550 -343 -25 -22 -30 -65 -13 -97 14
-26 46 -33 306 -71 l221 -32 224 86 c123 48 230 95 237 104 8 12 12 54 10 137
0 67 -3 105 -5 87 l-5 -35 -49 77 c-30 48 -59 81 -75 87 -31 12 -271 12 -301
0z"/>
<path d="M4074 540 c-12 -4 -47 -49 -78 -98 -55 -88 -56 -90 -56 -163 1 -45 6
-81 14 -91 7 -10 114 -57 237 -104 l224 -87 243 36 c273 40 292 46 292 105 0
20 -4 42 -8 49 -7 12 -488 315 -549 347 -25 12 -60 16 -165 15 -73 0 -142 -4
-154 -9z"/>
</g>
</svg>
